<svg width="27" height="27" viewBox="0 0 27 27" fill="none" xmlns="http://www.w3.org/2000/svg">
<path d="M13.4993 0C6.04397 0 0 6.04397 0 13.4993C0 20.9547 6.04397 27 13.4993 27C20.9547 27 27 20.956 27 13.4993C26.9986 6.04397 20.956 0 13.4993 0ZM2.70122 13.4993C2.70122 12.0813 2.98052 10.6772 3.52317 9.36707C4.06583 8.05698 4.86121 6.86661 5.86391 5.86391C6.86661 4.86121 8.05698 4.06583 9.36707 3.52317C10.6772 2.98052 12.0813 2.70122 13.4993 2.70122C14.9174 2.70122 16.3215 2.98052 17.6316 3.52317C18.9417 4.06583 20.132 4.86121 21.1347 5.86391C22.1374 6.86661 22.9328 8.05698 23.4755 9.36707C24.0181 10.6772 24.2974 12.0813 24.2974 13.4993C24.2974 16.3632 23.1598 19.1097 21.1347 21.1347C19.1097 23.1598 16.3632 24.2974 13.4993 24.2974C10.6355 24.2974 7.88895 23.1598 5.86391 21.1347C3.83887 19.1097 2.70122 16.3632 2.70122 13.4993ZM19.1881 9.17468C19.4413 9.42796 19.5835 9.77143 19.5835 10.1296C19.5835 10.4877 19.4413 10.8312 19.1881 11.0844L13.1103 17.1622C12.8571 17.4154 12.5136 17.5576 12.1555 17.5576C11.7973 17.5576 11.4539 17.4154 11.2006 17.1622L8.49938 14.461C8.25335 14.2062 8.11722 13.8651 8.12029 13.5109C8.12337 13.1568 8.26541 12.8181 8.51583 12.5677C8.76624 12.3172 9.10499 12.1752 9.45912 12.1721C9.81324 12.169 10.1544 12.3052 10.4091 12.5512L12.1555 14.2975L17.2783 9.17468C17.5316 8.92148 17.8751 8.77924 18.2332 8.77924C18.5913 8.77924 18.9348 8.92148 19.1881 9.17468Z" fill="black" fill-opacity="0.7"/>
</svg>
