<svg width="30" height="30" viewBox="0 0 45 45" fill="none" xmlns="http://www.w3.org/2000/svg">
<circle cx="22.5" cy="22.5" r="22.5" fill="#817F7F" fill-opacity="0.77"/>
<path d="M13.0198 14.1451C12.1422 14.1451 11.3006 14.5581 10.6801 15.2933C10.0595 16.0286 9.71094 17.0257 9.71094 18.0655V29.8269C9.71094 30.8667 10.0595 31.8638 10.6801 32.5991C11.3006 33.3343 12.1422 33.7473 13.0198 33.7473H32.8727C33.7503 33.7473 34.5919 33.3343 35.2124 32.5991C35.8329 31.8638 36.1815 30.8667 36.1815 29.8269V18.0655C36.1815 17.0257 35.8329 16.0286 35.2124 15.2933C34.5919 14.5581 33.7503 14.1451 32.8727 14.1451H30.9337C30.0562 14.1448 29.2148 13.7316 28.5944 12.9964L27.2245 11.3733C26.6042 10.638 25.7627 10.2248 24.8852 10.2246H21.0073C20.1298 10.2248 19.2883 10.638 18.6679 11.3733L17.2981 12.9964C16.6777 13.7316 15.8362 14.1448 14.9587 14.1451H13.0198ZM13.847 18.0655C13.6276 18.0655 13.4172 17.9623 13.262 17.7785C13.1069 17.5946 13.0198 17.3453 13.0198 17.0854C13.0198 16.8255 13.1069 16.5762 13.262 16.3924C13.4172 16.2086 13.6276 16.1053 13.847 16.1053C14.0664 16.1053 14.2768 16.2086 14.4319 16.3924C14.587 16.5762 14.6742 16.8255 14.6742 17.0854C14.6742 17.3453 14.587 17.5946 14.4319 17.7785C14.2768 17.9623 14.0664 18.0655 13.847 18.0655ZM28.7367 22.9661C28.7367 24.7857 28.1266 26.5308 27.0407 27.8174C25.9548 29.1041 24.482 29.8269 22.9462 29.8269C21.4105 29.8269 19.9377 29.1041 18.8518 27.8174C17.7659 26.5308 17.1558 24.7857 17.1558 22.9661C17.1558 21.1465 17.7659 19.4014 18.8518 18.1148C19.9377 16.8281 21.4105 16.1053 22.9462 16.1053C24.482 16.1053 25.9548 16.8281 27.0407 18.1148C28.1266 19.4014 28.7367 21.1465 28.7367 22.9661Z" fill="#ECECEC"/>
<path d="M27.0807 22.965C27.0807 24.2647 26.6449 25.5112 25.8692 26.4302C25.0936 27.3493 24.0416 27.8656 22.9446 27.8656C21.8477 27.8656 20.7957 27.3493 20.02 26.4302C19.2444 25.5112 18.8086 24.2647 18.8086 22.965C18.8086 21.6653 19.2444 20.4188 20.02 19.4998C20.7957 18.5808 21.8477 18.0645 22.9446 18.0645C24.0416 18.0645 25.0936 18.5808 25.8692 19.4998C26.6449 20.4188 27.0807 21.6653 27.0807 22.965Z" fill="#ECECEC"/>
</svg>
