<svg width="24" height="26" viewBox="0 0 24 26" fill="none" xmlns="http://www.w3.org/2000/svg">
<path d="M13.454 1.53956C12.6648 0.703887 11.3352 0.703887 10.546 1.53956L0.87124 11.7834C0.1637 12.5326 0.694815 13.7647 1.72528 13.7647C2.37406 13.7647 2.9 14.2906 2.9 14.9394V24C2.9 25.1046 3.79543 26 4.9 26H19.1C20.2046 26 21.1 25.1046 21.1 24V14.9394C21.1 14.2906 21.6259 13.7647 22.2747 13.7647C23.3052 13.7647 23.8363 12.5326 23.1288 11.7834L13.454 1.53956ZM8.1 9.17647C8.1 8.3318 8.78474 7.64706 9.62941 7.64706H13.3C13.9896 7.64706 14.6509 7.96933 15.1385 8.54297C15.6261 9.11661 15.9 9.89463 15.9 10.7059V13.7647C15.9 14.576 15.6261 15.354 15.1385 15.9276C14.6509 16.5013 13.9896 16.8235 13.3 16.8235H12.2294C11.3847 16.8235 10.7 17.5083 10.7 18.3529C10.7 19.1976 11.3847 19.8824 12.2294 19.8824H14.3706C15.2153 19.8824 15.9 20.5671 15.9 21.4118C15.9 22.2564 15.2153 22.9412 14.3706 22.9412H10.1C8.99543 22.9412 8.1 22.0457 8.1 20.9412V16.8235C8.1 16.0123 8.37393 15.2343 8.86152 14.6606C9.34912 14.087 10.0104 13.7647 10.7 13.7647H11.7706C12.6153 13.7647 13.3 13.08 13.3 12.2353C13.3 11.3906 12.6153 10.7059 11.7706 10.7059H9.62941C8.78474 10.7059 8.1 10.0211 8.1 9.17647Z" fill="black" fill-opacity="0.7"/>
</svg>
