<svg width="25" height="27" viewBox="0 0 25 27" fill="none" xmlns="http://www.w3.org/2000/svg">
<path d="M13.954 1.53956C13.1648 0.703886 11.8352 0.703887 11.046 1.53956L0.943211 12.2366C0.208457 13.0146 0.76 14.2941 1.8301 14.2941C2.50383 14.2941 3.05 14.8403 3.05 15.514V25C3.05 26.1046 3.94543 27 5.05 27H19.95C21.0546 27 21.95 26.1046 21.95 25V15.514C21.95 14.8403 22.4962 14.2941 23.1699 14.2941C24.24 14.2941 24.7915 13.0146 24.0568 12.2366L13.954 1.53956ZM9.8 9.52941C9.8 8.65225 10.5111 7.94118 11.3882 7.94118H13.2C14.3046 7.94118 15.2 8.83661 15.2 9.94118V22.4735C15.2 23.2191 14.5956 23.8235 13.85 23.8235C13.1044 23.8235 12.5 23.2191 12.5 22.4735V12.4676C12.5 11.7221 11.8956 11.1176 11.15 11.1176C10.4044 11.1176 9.8 10.5132 9.8 9.76765V9.52941Z" fill="black" fill-opacity="0.7"/>
</svg>
