<svg width="24" height="23" viewBox="0 0 24 23" fill="none" xmlns="http://www.w3.org/2000/svg">
<path d="M2 11.4521C2 7.91955 2 6.15283 3.172 5.05589C4.343 3.95801 6.229 3.95801 10 3.95801H14C17.771 3.95801 19.657 3.95801 20.828 5.05589C22 6.15283 22 7.91955 22 11.4521V13.3256C22 16.8581 22 18.6248 20.828 19.7218C19.657 20.8196 17.771 20.8196 14 20.8196H10C6.229 20.8196 4.343 20.8196 3.172 19.7218C2 18.6248 2 16.8581 2 13.3256V11.4521Z" stroke="#484242" stroke-width="1.5"/>
<path d="M7 3.95787V2.55273M17 3.95787V2.55273M2.5 8.64166H21.5" stroke="#484242" stroke-width="1.5" stroke-linecap="round"/>
<path d="M18 16.1369C18 16.3854 17.8946 16.6236 17.7071 16.7993C17.5196 16.975 17.2652 17.0737 17 17.0737C16.7348 17.0737 16.4804 16.975 16.2929 16.7993C16.1054 16.6236 16 16.3854 16 16.1369C16 15.8885 16.1054 15.6502 16.2929 15.4745C16.4804 15.2988 16.7348 15.2002 17 15.2002C17.2652 15.2002 17.5196 15.2988 17.7071 15.4745C17.8946 15.6502 18 15.8885 18 16.1369ZM18 12.3899C18 12.6383 17.8946 12.8766 17.7071 13.0523C17.5196 13.2279 17.2652 13.3266 17 13.3266C16.7348 13.3266 16.4804 13.2279 16.2929 13.0523C16.1054 12.8766 16 12.6383 16 12.3899C16 12.1414 16.1054 11.9032 16.2929 11.7275C16.4804 11.5518 16.7348 11.4531 17 11.4531C17.2652 11.4531 17.5196 11.5518 17.7071 11.7275C17.8946 11.9032 18 12.1414 18 12.3899ZM13 16.1369C13 16.3854 12.8946 16.6236 12.7071 16.7993C12.5196 16.975 12.2652 17.0737 12 17.0737C11.7348 17.0737 11.4804 16.975 11.2929 16.7993C11.1054 16.6236 11 16.3854 11 16.1369C11 15.8885 11.1054 15.6502 11.2929 15.4745C11.4804 15.2988 11.7348 15.2002 12 15.2002C12.2652 15.2002 12.5196 15.2988 12.7071 15.4745C12.8946 15.6502 13 15.8885 13 16.1369ZM13 12.3899C13 12.6383 12.8946 12.8766 12.7071 13.0523C12.5196 13.2279 12.2652 13.3266 12 13.3266C11.7348 13.3266 11.4804 13.2279 11.2929 13.0523C11.1054 12.8766 11 12.6383 11 12.3899C11 12.1414 11.1054 11.9032 11.2929 11.7275C11.4804 11.5518 11.7348 11.4531 12 11.4531C12.2652 11.4531 12.5196 11.5518 12.7071 11.7275C12.8946 11.9032 13 12.1414 13 12.3899ZM8 16.1369C8 16.3854 7.89464 16.6236 7.70711 16.7993C7.51957 16.975 7.26522 17.0737 7 17.0737C6.73478 17.0737 6.48043 16.975 6.29289 16.7993C6.10536 16.6236 6 16.3854 6 16.1369C6 15.8885 6.10536 15.6502 6.29289 15.4745C6.48043 15.2988 6.73478 15.2002 7 15.2002C7.26522 15.2002 7.51957 15.2988 7.70711 15.4745C7.89464 15.6502 8 15.8885 8 16.1369ZM8 12.3899C8 12.6383 7.89464 12.8766 7.70711 13.0523C7.51957 13.2279 7.26522 13.3266 7 13.3266C6.73478 13.3266 6.48043 13.2279 6.29289 13.0523C6.10536 12.8766 6 12.6383 6 12.3899C6 12.1414 6.10536 11.9032 6.29289 11.7275C6.48043 11.5518 6.73478 11.4531 7 11.4531C7.26522 11.4531 7.51957 11.5518 7.70711 11.7275C7.89464 11.9032 8 12.1414 8 12.3899Z" fill="#484242"/>
</svg>
