<svg width="27" height="27" viewBox="0 0 27 27" fill="none" xmlns="http://www.w3.org/2000/svg">
<path fill-rule="evenodd" clip-rule="evenodd" d="M12.6536 0.0110682L12.0013 0.078623C8.83629 0.394442 5.64763 2.02589 3.49144 4.43422C1.10712 7.09757 -0.104465 10.4027 0.00706186 13.924C0.201389 20.0056 4.38366 25.155 10.3166 26.6209C12.0633 27.0425 13.8765 27.1133 15.6509 26.8291C17.4252 26.545 19.1255 25.9117 20.6531 24.9658C23.6572 23.0951 25.8074 20.1214 26.6418 16.6836C26.9324 15.4997 27 14.8968 27 13.4967C27 12.0966 26.9324 11.4937 26.6418 10.3098C25.3034 4.8463 20.8018 0.826792 15.2001 0.0938228C14.7202 0.0313346 12.9746 -0.0243981 12.6536 0.0110682ZM14.9517 2.62544C16.1187 2.77497 17.2531 3.11562 18.3093 3.63369C19.4888 4.20791 20.3033 4.79226 21.2614 5.74985C22.1404 6.59683 22.8579 7.5966 23.3787 8.7003C24.1307 10.2456 24.4704 11.7369 24.4704 13.4967C24.4935 15.1768 24.1109 16.8378 23.3551 18.3387C23.0644 18.9315 22.4781 19.8823 22.2043 20.2049L22.1114 20.3147L14.4008 12.6067L6.68855 4.90035L6.79839 4.80746C7.12114 4.53386 8.0725 3.94782 8.66562 3.65734C10.611 2.694 12.8003 2.33462 14.9517 2.62544ZM12.6316 14.3985L20.3371 22.1015L20.2239 22.191C19.6345 22.626 19.0093 23.0102 18.355 23.3394C17.2962 23.8573 16.1635 24.2082 14.9973 24.3798C14.2808 24.4895 12.7397 24.4895 12.0233 24.3798C8.73152 23.8799 5.95348 22.0846 4.20454 19.325C3.77435 18.6121 3.4155 17.8586 3.1332 17.0754C2.47111 15.1257 2.36059 13.031 2.81383 11.0225C3.1616 9.57013 3.7908 8.19997 4.66585 6.98948C4.78414 6.82903 4.8906 6.6973 4.90412 6.6973C4.91594 6.6973 8.39356 10.1629 12.6316 14.3985Z" fill="black" fill-opacity="0.7"/>
</svg>
