<svg width="22" height="21" viewBox="0 0 22 21" fill="none" xmlns="http://www.w3.org/2000/svg">
<path d="M11 0C4.92491 0 0 4.70105 0 10.5C0 16.2993 4.92491 21 11 21C17.0754 21 22 16.2993 22 10.5C22 4.70105 17.0754 0 11 0ZM11 19.7082C5.69284 19.7082 1.375 15.5659 1.375 10.5C1.375 5.43404 5.69284 1.31246 11 1.31246C16.3072 1.31246 20.625 5.43406 20.625 10.5C20.625 15.5659 16.3072 19.7082 11 19.7082ZM15.8125 9.84375H11.6875V5.90625C11.6875 5.544 11.3795 5.25 11 5.25C10.6205 5.25 10.3125 5.544 10.3125 5.90625V9.84375H6.1875C5.808 9.84375 5.5 10.1377 5.5 10.5C5.5 10.8623 5.808 11.1562 6.1875 11.1562H10.3125V15.0938C10.3125 15.456 10.6205 15.75 11 15.75C11.3795 15.75 11.6875 15.456 11.6875 15.0938V11.1562H15.8125C16.192 11.1562 16.5 10.8623 16.5 10.5C16.5 10.1377 16.192 9.84375 15.8125 9.84375Z" fill="white"/>
</svg>
