<svg width="120" height="120" viewBox="0 0 120 120" fill="none" xmlns="http://www.w3.org/2000/svg">
<path fill-rule="evenodd" clip-rule="evenodd" d="M87.8726 38.8858C89.5496 40.5561 89.5551 43.2697 87.8848 44.9467L51.7733 81.2051C50.1031 82.8821 47.3896 82.8877 45.7125 81.2175L32.5428 68.1024C30.8657 66.4322 30.86 63.7187 32.5302 62.0415C34.2004 60.3644 36.914 60.3587 38.5911 62.0289L48.7242 72.12L81.8116 38.8981C83.4819 37.2211 86.1955 37.2156 87.8726 38.8858Z" fill="#FBB503"/>
<path fill-rule="evenodd" clip-rule="evenodd" d="M59.7466 12.2296C37.0291 12.2296 17.9708 28.0926 13.0786 49.3432L13.0786 49.3432C12.2822 52.8022 11.8605 56.4076 11.8605 60.1157C11.8605 86.5424 33.3199 108.002 59.7466 108.002C86.1733 108.002 107.633 86.5424 107.633 60.1157C107.633 33.689 86.1733 12.2296 59.7466 12.2296ZM4.72563 47.4202C10.4931 22.3678 32.9451 3.6582 59.7466 3.6582C90.9072 3.6582 116.204 28.9552 116.204 60.1157C116.204 91.2763 90.9072 116.573 59.7466 116.573C28.586 116.573 3.28906 91.2763 3.28906 60.1157C3.28906 55.7557 3.78513 51.5052 4.72563 47.4202Z" fill="#244A84"/>
</svg>
