<svg width="30" height="16" viewBox="0 0 30 16" fill="none" xmlns="http://www.w3.org/2000/svg">
<path d="M26.3359 6.96487C25.9953 6.96725 25.658 7.02964 25.34 7.14905L21.9429 4.43074C22.0264 4.1344 22.0859 3.82698 22.0859 3.50294C22.0859 1.58365 20.5078 0.0410156 18.5443 0.0410156C16.5808 0.0410156 15.0026 1.58365 15.0026 3.50294C15.0026 4.05131 15.1443 4.56229 15.3738 5.02204L11.2527 9.78288C11.0877 9.7527 10.9204 9.73649 10.7526 9.73442C10.499 9.73442 10.2596 9.77596 10.0273 9.83689L6.39635 6.28772C6.4601 6.062 6.5026 5.82798 6.5026 5.5801C6.5026 4.04577 5.23894 2.81056 3.66927 2.81056C2.0996 2.81056 0.835938 4.04577 0.835938 5.5801C0.835938 7.11443 2.0996 8.34965 3.66927 8.34965C3.92285 8.34965 4.16227 8.3081 4.3946 8.24717L8.02552 11.7963C7.95742 12.0264 7.92168 12.2645 7.91927 12.504C7.91927 14.0383 9.18294 15.2735 10.7526 15.2735C12.3223 15.2735 13.5859 14.0383 13.5859 12.504C13.5859 12.1758 13.5179 11.867 13.4117 11.5748L17.5384 6.80839C17.86 6.89979 18.1929 6.96487 18.5443 6.96487C19.1034 6.96185 19.6536 6.82845 20.1494 6.57575L23.5479 9.29406C23.5213 9.43949 23.5061 9.58671 23.5026 9.73442C23.5026 11.2687 24.7663 12.504 26.3359 12.504C27.9056 12.504 29.1693 11.2687 29.1693 9.73442C29.1693 8.20009 27.9056 6.96487 26.3359 6.96487Z" fill="#3B3838"/>
</svg>
